<svg xmlns="http://www.w3.org/2000/svg" viewBox="0 0 288.8 228.41"><defs><style>.cls-1{fill:#b5dcdb;}.cls-2,.cls-3,.cls-5{fill:#685c87;}.cls-3{stroke:#685c87;stroke-miterlimit:10;stroke-width:6px;}.cls-4{fill:#026d77;}.cls-5{font-size:44.09px;font-family:BodoniMT-Bold, Bodoni MT;font-weight:700;}.cls-6{letter-spacing:-0.03em;}.cls-7{letter-spacing:0.02em;}.cls-8{letter-spacing:0em;}.cls-9{letter-spacing:-0.02em;}</style></defs><g id="Layer_7" data-name="Layer 7"><path class="cls-1" d="M174.5,73.77c-14.37,16-28.18,32.54-43.61,47.51-4,3.87-8.11,7.62-12.38,11.19a2.51,2.51,0,0,0,0,3.53,2.55,2.55,0,0,0,3.54,0c15.89-13.27,29.59-28.94,43.28-44.41q6.33-7.16,12.7-14.28c2.15-2.39-1.37-5.93-3.53-3.54Z" transform="translate(-25.69 -22.63)"/><path class="cls-1" d="M182.9,78.71c-11.18,18.43-26.41,34.59-42.7,48.61-4.32,3.72-8.77,7.29-13.39,10.64a2.57,2.57,0,0,0-.89,3.42,2.52,2.52,0,0,0,3.42.89A234.43,234.43,0,0,0,177,96a160.09,160.09,0,0,0,10.19-14.73c1.67-2.76-2.65-5.27-4.32-2.52Z" transform="translate(-25.69 -22.63)"/><path class="cls-1" d="M190,85.76c-10.47,18.57-24.16,35.83-41,49.07a103.53,103.53,0,0,1-14.83,9.78c-2.84,1.52-.31,5.84,2.52,4.31,19.49-10.52,35.34-27.33,47.93-45.32q5.21-7.41,9.66-15.32c1.58-2.8-2.74-5.33-4.32-2.52Z" transform="translate(-25.69 -22.63)"/><path class="cls-1" d="M196.84,95.78a135.31,135.31,0,0,1-41.37,47.89c-4.16,3-8.47,5.83-12.88,8.47-2.76,1.65-.25,6,2.53,4.32,17.71-10.6,33.53-24.19,45.61-41A133.94,133.94,0,0,0,201.16,98.3c1.46-2.86-2.85-5.39-4.32-2.52Z" transform="translate(-25.69 -22.63)"/><path class="cls-1" d="M201,109.89a104,104,0,0,1-17.82,24.76A149.82,149.82,0,0,1,162.53,152c-4,2.88-8.17,5.65-12.29,8.41-2.66,1.78-.16,6.11,2.52,4.32,7.56-5.07,15.11-10.17,22.2-15.89A122.24,122.24,0,0,0,195.51,128a105.09,105.09,0,0,0,9.84-15.58c1.47-2.85-2.84-5.38-4.32-2.52Z" transform="translate(-25.69 -22.63)"/><path class="cls-1" d="M202.58,127c-8,14.7-21.12,24.78-35,33.62-3.56,2.28-7.17,4.5-10.72,6.8-2.7,1.74-.19,6.07,2.52,4.32,13.66-8.83,28-17,38.71-29.55a72.87,72.87,0,0,0,8.76-12.66c1.53-2.83-2.79-5.36-4.32-2.53Z" transform="translate(-25.69 -22.63)"/><path class="cls-1" d="M104.43,83.59c2.2,6.3,7.34,11.47,11.93,16.13,4.33,4.39,9.21,8.41,13.11,13.2a2.52,2.52,0,0,0,3.54,0,2.57,2.57,0,0,0,0-3.54c-3.76-4.61-8.45-8.49-12.63-12.7a100.94,100.94,0,0,1-7-7.73,35.21,35.21,0,0,1-2.42-3.4,21.43,21.43,0,0,1-1.06-1.87,7.42,7.42,0,0,1-.61-1.41,2.56,2.56,0,0,0-3.08-1.75,2.52,2.52,0,0,0-1.74,3.07Z" transform="translate(-25.69 -22.63)"/><path class="cls-1" d="M119.47,84.19a78.91,78.91,0,0,0,17.05,19.61,2.57,2.57,0,0,0,3.54,0,2.54,2.54,0,0,0,0-3.54,74.83,74.83,0,0,1-16.27-18.59c-1.63-2.77-6-.26-4.32,2.52Z" transform="translate(-25.69 -22.63)"/><path class="cls-1" d="M129.08,77.75c3.28,6.7,9.21,11.69,14.5,16.76A2.5,2.5,0,1,0,147.11,91c-2.53-2.43-5.13-4.79-7.55-7.34a32.61,32.61,0,0,1-6.16-8.42,2.5,2.5,0,0,0-4.32,2.53Z" transform="translate(-25.69 -22.63)"/><path class="cls-1" d="M139.66,72.94c2.54,5,6.24,9.07,10.07,13.11a2.53,2.53,0,0,0,3.54,0,2.56,2.56,0,0,0,0-3.54c-1.6-1.68-3.23-3.34-4.72-5.13l-.6-.73-.3-.38c-.19-.23.25.34,0,0-.43-.57-.85-1.14-1.24-1.73a36.45,36.45,0,0,1-2.4-4.09,2.51,2.51,0,0,0-3.42-.89,2.55,2.55,0,0,0-.9,3.42Z" transform="translate(-25.69 -22.63)"/><path class="cls-1" d="M152.33,70.93a18.76,18.76,0,0,0,3.54,5.83,21.08,21.08,0,0,0,1.64,1.77c.21.19.42.38.64.56a4.84,4.84,0,0,0,.89.65A2.67,2.67,0,0,0,161,80a2.58,2.58,0,0,0,1.5-1.15,2.54,2.54,0,0,0-.9-3.42,1.63,1.63,0,0,1-.35-.23l.51.39a17.1,17.1,0,0,1-2.86-3l.39.5a15.87,15.87,0,0,1-2.14-3.5l.25.6-.21-.55A2.65,2.65,0,0,0,156,68.1a2.57,2.57,0,0,0-1.92-.25,2.54,2.54,0,0,0-1.75,3.08Z" transform="translate(-25.69 -22.63)"/><polygon class="cls-2" points="78.96 221.77 78.96 221.77 75.8 215.71 76.37 165.11 82.37 165.11 81.8 215.65 78.96 221.77"/><path class="cls-1" d="M87.22,77.15c2.52,6.8,7.25,12.64,12,18,5.27,6,11,11.59,16.71,17.16,2.62,2.55,5.26,5.1,7.78,7.75,2.22,2.34,5.75-1.2,3.53-3.53-10-10.52-21.39-19.87-29.95-31.68-1.1-1.52-2.14-3.08-3.09-4.7A30,30,0,0,1,92,75.82,2.58,2.58,0,0,0,89,74.07a2.53,2.53,0,0,0-1.75,3.08Z" transform="translate(-25.69 -22.63)"/><path class="cls-1" d="M72.14,77.75C75.76,85,81.23,91.38,86.61,97.37c6.09,6.81,12.6,13.24,19.18,19.58,3,2.91,6.08,5.81,9.1,8.73,2.31,2.23,5.85-1.3,3.53-3.54C106.26,110.37,93.5,98.91,83.11,85.48a62.74,62.74,0,0,1-6.65-10.26c-1.44-2.88-5.76-.35-4.32,2.53Z" transform="translate(-25.69 -22.63)"/><polygon class="cls-2" points="76.82 96.55 75.02 12.98 81.23 12.85 83.15 101.83 76.82 96.55"/><ellipse class="cls-3" cx="103.34" cy="30.38" rx="15.81" ry="4.24" transform="translate(-28.94 -7.76) rotate(-8.1)"/><polygon class="cls-2" points="27.8 176.13 27.8 176.13 29.42 169.5 48.55 148.24 53.64 151.55 33.97 173.42 27.8 176.13"/><polygon class="cls-2" points="92.34 108.73 87.34 105.31 153.7 31.54 158.08 35.64 92.34 108.73"/><ellipse class="cls-3" cx="185.22" cy="51.06" rx="4.24" ry="15.81" transform="translate(5.89 143.79) rotate(-52.31)"/><path class="cls-1" d="M28.44,112.41C36.37,127.5,49,139.72,62.19,150.23c14.2,11.29,29.58,21,45,30.48,7.79,4.81,15.61,9.58,23.24,14.64,2.69,1.78,5.2-2.55,2.52-4.32-14-9.28-28.55-17.69-42.61-26.86-14.74-9.62-29.26-20-41.53-32.67a95.86,95.86,0,0,1-16-21.61c-1.5-2.85-5.81-.32-4.31,2.52Z" transform="translate(-25.69 -22.63)"/><path class="cls-1" d="M34.69,99.49c9.07,16.47,21.54,30.73,35.84,42.87,13.45,11.41,28.25,21,43,30.61,8,5.18,16,10.37,23.76,15.93a2.51,2.51,0,0,0,3.42-.89,2.55,2.55,0,0,0-.9-3.42C126.06,174.7,111.51,166,97.5,156.42,83,146.5,69,135.65,57.18,122.51A137.72,137.72,0,0,1,39,97c-1.55-2.82-5.87-.3-4.31,2.52Z" transform="translate(-25.69 -22.63)"/><path class="cls-1" d="M42.19,90.41c9.18,16.23,22,30.21,35.66,42.76s28.69,24,43.8,35c7.28,5.29,14.63,10.5,21.87,15.85a2.52,2.52,0,0,0,3.42-.9,2.55,2.55,0,0,0-.89-3.42c-13.39-9.88-27.07-19.36-40.22-29.57C91,138.6,76.62,126.29,64.15,112.21A143.63,143.63,0,0,1,46.51,87.89c-1.59-2.8-5.91-.28-4.32,2.52Z" transform="translate(-25.69 -22.63)"/><path class="cls-1" d="M51.8,82.11c2.94,7.09,7.4,13.37,12.26,19.26A210.42,210.42,0,0,0,83.18,121.3c14.62,13.63,30.31,26.06,46,38.44,7.48,5.91,15,11.77,22.3,17.88a2.58,2.58,0,0,0,3.54,0,2.53,2.53,0,0,0,0-3.54c-13.79-11.53-28.18-22.34-42.1-33.7C97.94,128.17,83,115.55,70.24,101a105.77,105.77,0,0,1-8.15-10.44c-1.11-1.64-2.17-3.32-3.13-5-.48-.85-.93-1.7-1.35-2.57q-.31-.63-.6-1.26c-.07-.14-.13-.28-.19-.42l-.18-.42c.1.25.1.24,0,0A2.59,2.59,0,0,0,53.55,79a2.52,2.52,0,0,0-1.75,3.07Z" transform="translate(-25.69 -22.63)"/><path class="cls-4" d="M65.08,85.27c8.36,12.3,14.31,19.07,25.22,29.12,10,9.22,20.56,17.63,31.37,25.86,10,7.59,20,15.34,28.34,24.75a74.87,74.87,0,0,1,10.43,14.86,124.35,124.35,0,0,1,8.31,20.37c5.19,16.36,8.2,33.39,11.72,50.17.28,1.32,1.66.24,2.9-.1s2.2.1,1.92-1.23c-3.18-15.15-6-30.47-10.27-45.37-3.88-13.48-9.12-26.76-17.84-37.89-7.91-10.09-17.92-18.27-28-26.07-10.36-8-20.75-15.84-30.54-24.55-12.35-11-23.79-24.35-31.9-38.7-1.58-2.79-6.82-1.3-5.31,2.29Z" transform="translate(-25.69 -22.63)"/><path class="cls-1" d="M25.81,126.93c5.3,13.92,17.2,24.53,29,33.09,12.95,9.44,27.51,16.28,41.3,24.38q13.62,8,26.71,16.86c2.67,1.8,5.18-2.53,2.52-4.32-15-10.11-30.49-19.33-46.39-27.9-12.69-6.84-25-14.62-35.24-24.86-5.33-5.33-10.33-11.46-13-18.58a2.57,2.57,0,0,0-3.07-1.75,2.53,2.53,0,0,0-1.75,3.08Z" transform="translate(-25.69 -22.63)"/><text class="cls-5" transform="translate(145.74 162.19) scale(0.81 1)">nit<tspan class="cls-6" x="50.1" y="0">w</tspan><tspan x="79.66" y="0">o</tspan><tspan class="cls-7" x="101.28" y="0">r</tspan><tspan class="cls-8" x="118.61" y="0">t</tspan><tspan class="cls-9" x="132.86" y="0">h</tspan><tspan x="155.92" y="0">y</tspan></text></g></svg>